<?xml version="1.0" encoding="UTF-8" ?>
<!DOCTYPE svg PUBLIC "-//W3C//DTD SVG 1.1//EN" "http://www.w3.org/Graphics/SVG/1.1/DTD/svg11.dtd">
<svg width="263pt" height="246pt" viewBox="0 0 263 246" version="1.1" xmlns="http://www.w3.org/2000/svg">
<g id="#000000ff">
</g>
<g id="#ffffffff">
<path fill="#ffffff" opacity="1.00" d=" M 196.12 19.54 C 206.79 15.65 218.50 13.40 229.78 15.70 C 237.46 17.22 244.62 22.46 247.34 29.96 C 249.36 36.31 247.95 43.21 244.80 48.94 C 234.90 45.85 224.40 44.17 214.03 45.21 C 205.91 46.13 197.77 47.23 189.93 49.62 C 176.77 52.65 163.83 58.98 150.00 56.86 C 132.00 55.33 116.97 43.18 98.97 41.60 C 92.62 40.84 86.34 42.31 80.21 43.77 C 85.21 38.08 92.41 34.47 100.02 34.26 C 114.12 33.01 126.96 41.40 141.04 40.46 C 136.57 39.13 133.05 35.91 130.28 32.27 C 136.77 35.05 143.96 36.96 151.05 35.74 C 167.07 33.51 181.03 24.73 196.12 19.54 Z" />
<path fill="#ffffff" opacity="1.00" d=" M 134.60 17.60 C 138.64 23.07 145.68 24.10 152.00 24.27 C 161.67 24.29 171.22 22.64 180.78 21.39 C 169.77 27.32 157.60 32.16 144.90 31.78 C 141.11 31.58 136.60 30.72 134.57 27.14 C 132.77 24.24 133.90 20.65 134.60 17.60 Z" />
<path fill="#ffffff" opacity="1.00" d=" M 71.63 24.15 C 83.25 21.68 95.80 21.30 106.83 26.30 C 111.60 28.16 115.82 31.10 120.16 33.76 C 112.67 31.63 104.88 29.74 97.05 31.05 C 88.18 31.91 80.34 36.73 71.51 37.78 C 62.46 39.54 51.92 38.44 45.36 31.30 C 57.48 34.26 69.63 29.88 81.05 26.15 C 77.98 25.19 74.79 24.74 71.63 24.15 Z" />
<path fill="#ffffff" opacity="1.00" d=" M 86.94 48.00 C 90.34 45.41 94.86 44.96 99.01 45.11 C 109.74 45.85 120.07 49.75 129.05 55.59 C 125.76 55.05 122.48 54.47 119.21 53.85 C 110.40 53.17 101.03 51.15 92.57 54.67 C 89.85 55.60 88.57 58.56 86.19 59.79 C 84.61 56.10 83.58 51.03 86.94 48.00 Z" />
<path fill="#ffffff" opacity="1.00" d=" M 196.51 51.81 C 212.28 47.54 229.26 47.76 244.77 53.00 C 245.32 56.43 243.92 59.51 241.29 61.67 C 234.10 59.36 226.61 57.59 219.02 57.71 C 211.43 57.51 203.96 59.14 196.59 60.70 C 195.16 57.85 195.24 54.69 196.51 51.81 Z" />
<path fill="#ffffff" opacity="1.00" d=" M 199.53 63.96 C 206.91 60.93 215.02 61.01 222.86 61.22 C 227.96 61.33 232.99 62.35 237.80 64.01 C 233.28 70.20 230.08 77.19 227.10 84.21 C 218.62 84.21 210.13 84.21 201.65 84.22 C 201.29 78.77 200.78 73.34 200.06 67.93 C 199.80 66.62 199.66 65.28 199.53 63.96 Z" />
<path fill="#ffffff" opacity="1.00" d=" M 96.27 78.97 C 95.87 76.05 98.69 74.47 101.06 73.76 C 104.81 74.06 108.09 78.07 105.76 81.65 C 103.64 86.28 95.50 84.16 96.27 78.97 M 99.07 77.14 C 97.40 79.07 99.03 81.51 100.91 82.50 C 101.53 82.22 102.77 81.67 103.40 81.39 C 103.62 80.80 104.08 79.61 104.31 79.02 C 104.03 78.35 103.49 77.03 103.21 76.37 C 101.85 76.40 99.89 75.62 99.07 77.14 Z" />
<path fill="#ffffff" opacity="1.00" d=" M 109.43 73.81 C 111.72 74.45 114.84 73.60 116.36 75.88 C 116.98 77.72 115.98 79.26 114.95 80.69 C 115.56 81.86 116.18 83.03 116.78 84.21 C 116.28 84.23 115.27 84.27 114.77 84.29 C 113.74 82.84 112.71 81.40 111.66 79.97 C 111.30 81.65 111.48 83.83 109.65 84.67 C 108.89 81.10 109.29 77.42 109.43 73.81 M 111.28 76.00 C 111.27 76.72 111.26 78.16 111.25 78.89 C 112.79 78.86 114.10 78.33 114.75 76.81 C 113.60 76.52 112.44 76.25 111.28 76.00 Z" />
<path fill="#ffffff" opacity="1.00" d=" M 28.71 74.35 C 29.23 74.31 30.26 74.22 30.77 74.17 C 30.78 76.82 30.79 79.46 30.79 82.11 C 32.55 82.16 34.39 82.03 35.99 82.93 C 33.95 84.78 31.06 84.43 28.64 83.64 C 28.78 80.55 28.76 77.45 28.71 74.35 Z" />
<path fill="#ffffff" opacity="1.00" d=" M 37.47 84.64 C 37.92 80.76 40.24 77.45 41.71 73.91 C 42.96 77.42 45.79 80.70 45.60 84.52 C 44.37 83.87 43.30 82.93 41.96 82.52 C 40.19 82.45 38.97 83.97 37.47 84.64 M 40.84 79.37 C 40.38 80.72 40.88 81.20 42.33 80.81 C 42.77 79.47 42.27 78.98 40.84 79.37 Z" />
<path fill="#ffffff" opacity="1.00" d=" M 46.59 74.43 C 47.13 74.35 48.23 74.20 48.77 74.12 C 49.54 75.81 50.23 77.53 50.88 79.27 C 51.50 77.36 52.37 75.53 53.66 73.98 C 54.34 75.80 55.13 77.57 56.10 79.26 C 56.64 77.60 57.19 75.96 57.72 74.31 C 58.24 74.28 59.29 74.22 59.82 74.20 C 58.66 77.72 57.51 81.25 56.09 84.68 C 55.28 82.73 54.50 80.76 53.76 78.78 C 52.18 80.25 51.44 82.32 50.31 84.11 C 48.98 80.92 47.91 77.62 46.59 74.43 Z" />
<path fill="#ffffff" opacity="1.00" d=" M 76.67 73.78 C 78.75 75.63 80.75 77.56 82.70 79.54 C 82.70 77.81 82.71 76.08 82.72 74.35 L 84.83 74.21 C 84.86 77.62 84.87 81.03 84.74 84.44 C 82.72 82.51 80.67 80.60 78.68 78.64 C 78.69 80.52 78.67 82.42 78.61 84.31 C 78.11 84.27 77.13 84.20 76.63 84.16 C 76.56 80.70 76.54 77.24 76.67 73.78 Z" />
<path fill="#ffffff" opacity="1.00" d=" M 118.56 79.04 C 119.27 77.24 119.88 74.85 122.06 74.34 C 124.34 73.83 128.74 74.07 127.29 77.47 C 125.87 77.01 124.46 75.49 122.91 76.32 C 120.48 76.60 121.36 79.56 121.35 81.17 C 122.02 81.48 123.37 82.09 124.04 82.40 C 125.14 81.77 126.25 81.14 127.35 80.51 C 128.85 83.72 124.32 85.01 122.01 83.94 C 119.95 83.14 119.23 80.94 118.56 79.04 Z" />
<path fill="#ffffff" opacity="1.00" d=" M 140.38 73.95 C 141.91 75.70 143.48 77.41 145.06 79.12 C 146.83 77.38 148.51 75.57 150.20 73.76 C 150.23 77.13 150.23 80.50 150.23 83.87 C 149.73 83.86 148.72 83.84 148.21 83.83 C 148.21 82.22 148.22 80.61 148.23 79.00 C 147.29 80.07 146.35 81.13 145.40 82.20 C 144.18 81.33 143.22 80.18 142.32 79.00 C 141.90 80.83 143.03 83.96 140.39 84.24 C 140.26 80.81 140.28 77.38 140.38 73.95 Z" />
<path fill="#ffffff" opacity="1.00" d=" M 169.09 74.44 C 169.84 74.34 170.59 74.24 171.35 74.14 C 171.34 77.48 171.40 80.83 171.30 84.18 C 169.07 82.61 167.11 80.69 165.34 78.62 C 165.26 80.78 165.48 83.13 163.95 84.94 C 162.00 81.59 163.07 77.59 162.92 73.93 C 165.20 75.63 167.27 77.58 169.39 79.48 C 169.32 78.22 169.17 75.70 169.09 74.44 Z" />
<path fill="#ffffff" opacity="1.00" d=" M 174.00 74.31 C 176.48 74.15 178.95 74.24 181.43 74.25 C 181.41 74.74 181.37 75.72 181.35 76.22 C 180.65 76.22 179.25 76.22 178.56 76.22 C 177.94 78.97 180.19 83.47 176.69 84.72 C 176.45 81.88 176.47 79.02 176.49 76.17 C 175.74 76.17 174.24 76.19 173.49 76.20 C 173.62 75.72 173.88 74.78 174.00 74.31 Z" />
<path fill="#ffffff" opacity="1.00" d=" M 67.08 74.22 C 69.31 74.23 71.54 74.23 73.77 74.25 L 73.70 76.20 C 72.19 76.20 70.68 76.21 69.16 76.22 C 69.22 76.72 69.32 77.72 69.37 78.22 C 70.25 78.20 72.01 78.16 72.89 78.14 L 72.78 80.15 C 71.85 80.17 69.99 80.21 69.06 80.23 C 69.14 80.73 69.31 81.74 69.40 82.24 C 70.91 82.21 72.43 82.18 73.95 82.16 C 73.88 82.68 73.74 83.71 73.67 84.23 C 71.52 84.21 69.36 84.21 67.21 84.24 C 67.03 80.90 67.05 77.56 67.08 74.22 Z" />
<path fill="#ffffff" opacity="1.00" d=" M 87.80 74.27 C 89.97 74.25 92.13 74.24 94.30 74.24 L 94.30 76.19 C 92.82 76.20 91.33 76.21 89.86 76.22 C 89.85 76.77 89.83 77.87 89.83 78.42 C 91.14 78.43 92.46 78.44 93.78 78.45 C 93.76 78.94 93.73 79.91 93.71 80.39 C 92.49 80.40 91.26 80.41 90.04 80.43 C 89.81 81.57 89.35 83.84 89.12 84.98 C 86.70 81.94 88.19 77.82 87.80 74.27 Z" />
<path fill="#ffffff" opacity="1.00" d=" M 130.76 74.30 C 132.99 74.26 135.22 74.24 137.46 74.24 L 137.40 76.19 C 135.94 76.20 134.49 76.22 133.03 76.24 C 133.10 76.73 133.25 77.71 133.33 78.20 C 134.20 78.19 135.95 78.16 136.82 78.15 L 136.75 80.19 C 135.84 80.18 134.04 80.16 133.13 80.15 C 133.15 80.65 133.18 81.63 133.20 82.13 C 134.58 82.57 137.75 81.31 137.78 83.40 C 135.83 84.75 133.24 84.32 131.06 83.93 C 130.39 80.78 130.89 77.50 130.76 74.30 Z" />
<path fill="#ffffff" opacity="1.00" d=" M 153.39 74.23 C 155.65 74.24 157.92 74.24 160.18 74.28 L 160.11 76.09 C 158.35 76.19 156.59 76.31 154.85 76.58 C 155.33 79.21 159.77 77.04 159.65 79.47 C 158.34 80.21 156.80 80.18 155.35 80.40 C 155.42 80.84 155.57 81.72 155.65 82.16 C 157.42 82.25 159.39 81.83 160.94 83.00 C 158.87 84.87 155.96 84.05 153.45 84.24 C 153.36 80.90 153.38 77.56 153.39 74.23 Z" />
<path fill="#ffffff" opacity="1.00" d=" M 23.78 88.46 C 30.69 88.44 37.59 88.44 44.49 88.47 C 44.47 90.16 44.47 91.85 44.46 93.54 C 41.90 93.55 39.33 93.56 36.76 93.59 C 36.75 100.84 36.85 108.08 36.69 115.33 C 34.90 115.31 33.10 115.29 31.30 115.28 C 31.24 108.05 31.28 100.81 31.28 93.58 C 28.78 93.56 26.28 93.55 23.78 93.54 C 23.78 91.85 23.78 90.15 23.78 88.46 Z" />
<path fill="#ffffff" opacity="1.00" d=" M 77.46 88.43 C 82.50 88.85 87.86 87.51 92.67 89.41 C 99.22 91.90 99.08 102.95 92.38 105.16 C 94.38 108.55 96.42 111.91 98.41 115.31 C 96.25 115.30 94.09 115.29 91.93 115.29 C 90.19 112.59 88.82 109.68 87.04 107.01 C 86.30 105.62 84.40 106.29 83.14 105.97 C 83.13 109.08 83.13 112.18 83.14 115.29 C 81.25 115.29 79.36 115.29 77.48 115.29 C 77.44 106.34 77.49 97.39 77.46 88.43 M 83.16 93.51 C 83.12 96.12 83.13 98.73 83.21 101.34 C 85.91 101.37 88.67 101.41 91.18 100.23 C 91.46 98.51 92.13 96.66 91.16 95.02 C 89.24 92.59 85.81 93.86 83.16 93.51 Z" />
<path fill="#ffffff" opacity="1.00" d=" M 102.46 107.94 C 98.03 99.69 104.39 88.21 113.89 88.24 C 118.61 87.55 123.32 89.75 125.81 93.80 C 124.32 94.76 122.86 95.77 121.39 96.76 C 118.80 92.25 111.32 92.16 108.56 96.53 C 107.07 98.42 106.78 100.89 106.66 103.22 C 107.75 106.95 110.60 110.92 114.96 110.56 C 118.01 111.12 119.80 108.40 122.09 107.08 C 123.78 107.57 125.06 108.87 126.46 109.86 C 120.84 118.18 106.47 117.34 102.46 107.94 Z" />
<path fill="#ffffff" opacity="1.00" d=" M 130.73 88.51 C 132.71 88.47 134.68 88.44 136.66 88.41 C 136.69 92.22 136.68 96.04 136.69 99.85 C 140.37 99.81 144.06 99.81 147.75 99.84 C 147.71 96.06 147.74 92.27 147.72 88.48 C 149.66 88.46 151.60 88.44 153.54 88.42 C 153.53 97.38 153.58 106.35 153.51 115.31 C 151.58 115.29 149.66 115.28 147.73 115.27 C 147.73 111.73 147.74 108.20 147.70 104.66 C 144.03 104.67 140.36 104.67 136.69 104.66 C 136.68 108.21 136.69 111.76 136.65 115.31 C 134.68 115.29 132.72 115.28 130.76 115.27 C 130.74 106.35 130.78 97.43 130.73 88.51 Z" />
<path fill="#ffffff" opacity="1.00" d=" M 164.64 88.44 C 169.61 88.81 174.90 87.54 179.66 89.40 C 186.28 91.89 186.13 102.91 179.40 105.17 C 181.41 108.57 183.40 111.97 185.53 115.29 C 183.33 115.29 181.14 115.28 178.94 115.28 C 177.11 112.38 175.63 109.27 173.69 106.46 C 172.54 106.09 171.37 105.84 170.17 105.71 C 170.05 108.90 170.07 112.09 170.09 115.28 C 168.27 115.28 166.46 115.29 164.65 115.31 C 164.64 106.35 164.65 97.40 164.64 88.44 M 170.09 93.53 C 170.06 96.13 170.08 98.73 170.18 101.33 C 172.91 101.34 175.75 101.48 178.26 100.19 C 178.62 98.37 178.64 96.52 178.39 94.69 C 175.87 93.18 172.89 93.57 170.09 93.53 Z" />
<path fill="#ffffff" opacity="1.00" d=" M 204.74 88.49 C 206.66 88.46 208.59 88.45 210.53 88.43 C 210.39 94.98 210.82 101.56 210.32 108.10 C 208.83 115.90 198.22 117.59 192.43 113.60 C 189.94 111.90 188.85 108.93 188.76 106.01 C 188.57 100.17 188.77 94.31 188.68 88.46 C 190.56 88.45 192.45 88.44 194.34 88.43 C 194.44 94.58 194.13 100.76 194.48 106.90 C 195.09 110.76 199.94 111.36 202.88 109.92 C 204.62 108.94 204.73 106.78 204.77 105.01 C 204.81 99.50 204.78 94.00 204.74 88.49 Z" />
<path fill="#ffffff" opacity="1.00" d=" M 215.88 87.91 C 221.75 93.14 227.86 98.24 232.91 104.28 C 232.38 99.02 232.67 93.73 232.59 88.45 C 234.32 88.45 236.06 88.45 237.79 88.44 C 237.76 97.55 237.82 106.66 237.76 115.77 C 232.02 110.73 226.34 105.59 221.14 100.00 C 221.21 104.82 221.30 109.64 221.17 114.45 C 220.25 116.13 217.77 114.98 216.21 115.40 C 215.39 106.28 215.97 97.06 215.88 87.91 Z" />
<path fill="#ffffff" opacity="1.00" d=" M 240.78 90.62 C 242.00 89.58 243.14 87.85 245.01 88.26 C 249.08 88.00 248.60 95.01 245.05 95.59 L 246.67 92.41 C 248.00 89.69 244.75 88.76 242.71 89.10 C 245.62 89.31 246.28 91.14 245.74 93.63 C 244.03 93.49 242.00 93.98 240.89 92.29 C 241.61 92.43 243.05 92.71 243.77 92.85 C 243.75 92.18 243.72 90.84 243.70 90.17 C 242.97 90.28 241.51 90.51 240.78 90.62 Z" />
<path fill="#ffffff" opacity="1.00" d=" M 52.53 89.63 C 59.69 85.81 69.30 89.36 72.32 96.90 C 73.07 101.57 73.29 106.96 69.92 110.73 C 64.37 117.60 52.18 117.19 47.42 109.63 C 42.85 103.20 45.21 92.93 52.53 89.63 M 55.68 93.84 C 48.53 96.96 49.86 109.91 58.02 110.52 C 64.72 111.72 69.39 103.32 66.22 97.80 C 64.61 93.69 59.56 92.30 55.68 93.84 Z" />
<path fill="#ffffff" opacity="1.00" d=" M 40.16 128.86 C 38.39 125.95 40.31 121.18 43.98 121.29 C 47.32 120.52 50.33 123.90 49.69 127.12 C 49.43 129.15 47.62 130.32 46.18 131.51 C 43.98 131.35 41.21 131.17 40.16 128.86 M 42.34 124.29 C 40.25 126.48 42.58 129.26 45.03 129.56 C 45.58 129.18 46.69 128.40 47.25 128.01 C 47.32 127.19 47.47 125.53 47.54 124.70 C 46.16 123.39 43.68 122.32 42.34 124.29 Z" />
<path fill="#ffffff" opacity="1.00" d=" M 52.39 121.33 C 54.76 121.67 57.99 120.44 59.51 122.90 C 60.13 124.69 59.02 126.25 58.47 127.87 C 58.97 129.19 59.31 130.55 59.49 131.95 C 57.69 130.75 56.32 129.07 54.71 127.65 C 54.63 128.61 54.47 130.55 54.39 131.51 L 52.57 131.10 C 52.15 127.86 52.43 124.58 52.39 121.33 M 54.59 123.10 C 54.57 123.81 54.54 125.22 54.52 125.93 C 55.53 125.81 56.54 125.69 57.55 125.57 C 57.54 125.06 57.51 124.03 57.49 123.52 C 56.53 123.37 55.56 123.23 54.59 123.10 Z" />
<path fill="#ffffff" opacity="1.00" d=" M 67.46 121.42 C 68.88 121.38 70.30 121.37 71.73 121.39 C 71.79 121.98 71.90 123.18 71.96 123.77 C 71.05 123.70 69.23 123.54 68.32 123.46 C 70.77 125.15 73.77 126.66 72.93 130.20 C 70.72 131.92 67.89 131.48 65.78 129.84 C 66.60 127.40 68.53 128.78 70.16 129.50 C 70.38 129.13 70.82 128.40 71.04 128.04 C 69.55 127.18 67.61 126.72 66.81 125.05 C 66.02 123.85 67.17 122.58 67.46 121.42 Z" />
<path fill="#ffffff" opacity="1.00" d=" M 85.38 121.37 C 87.55 121.38 89.73 121.37 91.90 121.36 C 91.90 121.83 91.88 122.76 91.88 123.23 C 90.39 123.23 88.90 123.24 87.41 123.25 C 87.47 123.75 87.59 124.76 87.64 125.27 C 88.90 125.24 90.16 125.22 91.42 125.20 L 91.38 127.13 C 89.78 127.40 86.84 126.32 87.33 129.20 C 89.03 129.24 90.73 129.29 92.43 129.35 C 92.36 129.82 92.24 130.76 92.17 131.23 C 89.93 131.25 87.68 131.26 85.43 131.28 C 85.38 127.98 85.39 124.68 85.38 121.37 Z" />
<path fill="#ffffff" opacity="1.00" d=" M 95.33 123.44 C 96.56 120.76 99.70 121.27 102.09 121.50 C 102.49 121.90 103.30 122.70 103.71 123.10 C 103.20 123.54 102.69 123.98 102.18 124.42 C 100.92 123.82 99.40 122.39 98.03 123.65 C 95.63 124.97 96.37 128.64 98.91 129.30 C 100.48 128.96 102.03 128.52 103.63 128.30 C 103.55 128.73 103.38 129.59 103.29 130.02 C 102.74 130.33 101.63 130.97 101.07 131.29 C 100.28 131.31 98.70 131.37 97.91 131.39 C 95.10 129.97 93.26 126.22 95.33 123.44 Z" />
<path fill="#ffffff" opacity="1.00" d=" M 106.10 121.57 C 106.85 121.48 107.60 121.38 108.35 121.29 C 108.35 124.60 108.36 127.91 108.33 131.23 C 107.86 131.26 106.93 131.32 106.46 131.35 C 106.37 130.57 106.29 129.80 106.21 129.03 C 106.33 126.54 106.32 124.05 106.10 121.57 Z" />
<path fill="#ffffff" opacity="1.00" d=" M 111.53 131.72 C 110.91 127.82 114.11 124.44 115.08 120.75 C 116.68 124.35 118.47 127.87 119.78 131.59 C 117.07 130.23 113.79 128.71 111.53 131.72 M 115.17 128.48 C 116.68 127.68 116.69 126.88 115.20 126.10 C 113.72 126.88 113.71 127.67 115.17 128.48 Z" />
<path fill="#ffffff" opacity="1.00" d=" M 135.26 125.07 C 135.95 120.46 143.19 119.80 144.90 124.00 C 146.06 125.99 144.85 128.20 144.18 130.13 C 142.45 130.96 140.61 131.43 138.69 131.49 C 136.60 130.01 134.46 127.90 135.26 125.07 M 137.57 128.07 C 138.19 128.45 139.44 129.21 140.06 129.59 C 141.78 128.96 142.97 127.71 143.62 126.02 C 142.73 124.78 141.88 122.77 139.96 123.21 C 137.39 123.21 137.27 126.17 137.57 128.07 Z" />
<path fill="#ffffff" opacity="1.00" d=" M 147.83 121.59 C 148.66 121.48 149.48 121.37 150.30 121.26 C 150.33 123.92 150.33 126.58 150.35 129.24 C 151.81 129.25 153.27 129.26 154.73 129.27 C 154.67 129.77 154.57 130.76 154.51 131.26 C 152.47 131.25 150.43 131.26 148.39 131.30 C 147.94 128.08 147.75 124.84 147.83 121.59 Z" />
<path fill="#ffffff" opacity="1.00" d=" M 154.97 121.50 C 155.60 121.44 156.87 121.34 157.50 121.28 C 158.08 122.67 158.63 124.07 159.14 125.49 C 159.93 124.09 160.74 122.70 161.55 121.32 C 162.08 121.35 163.13 121.40 163.66 121.43 C 161.91 124.47 160.10 127.63 160.41 131.27 C 159.95 131.28 159.02 131.30 158.56 131.30 C 158.98 127.57 156.61 124.60 154.97 121.50 Z" />
<path fill="#ffffff" opacity="1.00" d=" M 165.84 120.94 C 167.65 122.53 168.98 124.76 171.06 125.98 C 172.79 124.53 174.18 122.73 175.73 121.10 C 175.76 124.66 175.88 128.23 175.54 131.78 C 173.14 130.90 174.11 128.01 173.74 126.13 C 172.81 127.28 171.87 128.42 170.94 129.56 C 170.07 128.51 169.23 127.44 168.41 126.35 C 168.14 128.16 168.49 130.38 167.02 131.78 C 164.44 128.89 166.30 124.46 165.84 120.94 Z" />
<path fill="#ffffff" opacity="1.00" d=" M 188.68 121.43 C 189.19 121.41 190.21 121.38 190.72 121.36 C 190.74 124.82 190.81 128.28 190.52 131.73 C 189.89 131.36 189.27 130.98 188.64 130.61 C 188.72 127.55 188.71 124.49 188.68 121.43 Z" />
<path fill="#ffffff" opacity="1.00" d=" M 194.84 122.87 C 196.86 120.35 200.81 121.00 203.00 122.96 C 202.55 123.33 201.66 124.07 201.22 124.44 C 200.00 123.16 198.29 123.23 196.69 123.45 C 195.82 125.13 195.20 127.49 197.08 128.78 C 198.69 130.63 201.38 126.84 202.83 128.99 C 200.86 132.98 195.36 131.45 193.51 128.15 C 193.71 126.35 193.26 124.17 194.84 122.87 Z" />
<path fill="#ffffff" opacity="1.00" d=" M 205.67 121.64 C 207.38 121.60 210.65 120.37 210.94 122.92 C 210.06 124.18 208.22 123.46 206.89 123.84 C 208.43 125.00 210.76 125.52 211.62 127.39 C 212.35 128.96 210.87 130.22 210.18 131.47 C 207.83 131.49 205.18 131.13 204.29 128.55 C 205.79 127.88 209.80 130.79 209.42 128.02 C 208.27 127.29 207.03 126.70 205.92 125.92 C 204.97 124.66 205.54 123.04 205.67 121.64 Z" />
<path fill="#ffffff" opacity="1.00" d=" M 30.80 121.42 C 33.01 121.39 35.22 121.39 37.43 121.42 L 37.31 123.20 C 35.90 123.22 34.49 123.24 33.08 123.26 C 33.10 123.82 33.15 124.94 33.17 125.51 C 34.41 125.51 35.65 125.53 36.89 125.54 C 36.83 126.07 36.72 127.13 36.66 127.65 C 35.85 127.61 34.23 127.53 33.42 127.49 C 33.01 129.05 32.58 130.60 32.06 132.12 C 29.83 129.00 31.11 124.97 30.80 121.42 Z" />
<path fill="#ffffff" opacity="1.00" d=" M 75.60 121.37 C 77.86 121.68 80.83 120.52 82.42 122.68 C 82.95 124.15 82.49 125.70 82.34 127.19 C 80.33 127.78 76.86 127.80 77.65 130.92 L 75.60 130.87 C 75.60 127.70 75.60 124.54 75.60 121.37 M 77.77 123.13 C 77.79 124.08 77.81 125.02 77.83 125.96 C 78.84 125.58 81.08 126.21 80.59 124.43 C 80.66 123.00 78.66 123.55 77.77 123.13 Z" />
<path fill="#ffffff" opacity="1.00" d=" M 122.22 121.55 C 122.72 121.48 123.73 121.34 124.23 121.27 C 124.24 123.94 124.23 126.60 124.24 129.27 C 125.65 129.25 127.06 129.22 128.48 129.21 L 128.39 131.24 C 126.37 131.26 124.36 131.27 122.35 131.33 C 121.67 128.11 121.73 124.79 122.22 121.55 Z" />
<path fill="#ffffff" opacity="1.00" d=" M 178.78 121.40 C 180.89 121.37 183.00 121.41 185.10 121.67 C 185.42 122.24 186.07 123.38 186.39 123.95 C 186.05 125.10 185.68 126.25 185.32 127.40 C 183.99 127.69 182.67 127.99 181.35 128.29 C 181.07 129.60 180.63 130.86 180.05 132.06 C 177.81 128.96 179.10 124.94 178.78 121.40 M 181.22 123.09 C 181.20 123.80 181.16 125.21 181.14 125.92 C 181.80 125.86 183.13 125.73 183.80 125.67 C 183.76 125.12 183.67 124.02 183.63 123.47 C 183.02 123.38 181.82 123.19 181.22 123.09 Z" />
<path fill="#ffffff" opacity="1.00" d=" M 42.77 136.72 C 45.64 132.63 52.85 136.04 51.48 140.89 C 51.05 144.77 46.75 145.20 43.69 144.42 C 41.69 142.41 40.35 138.99 42.77 136.72 M 45.16 137.10 C 42.53 138.18 43.10 142.76 45.96 143.08 C 47.72 143.73 49.76 141.83 49.66 140.04 C 49.97 137.77 47.09 135.81 45.16 137.10 Z" />
<path fill="#ffffff" opacity="1.00" d=" M 74.52 134.04 C 75.99 135.38 75.49 137.48 75.70 139.24 C 77.08 139.23 78.45 139.23 79.82 139.22 C 79.90 137.38 79.87 135.45 81.19 133.99 C 82.22 137.59 81.74 141.38 81.71 145.08 C 79.42 145.15 80.11 142.65 79.77 141.14 C 78.38 141.18 76.99 141.21 75.60 141.24 C 75.60 142.12 75.60 143.89 75.59 144.77 L 73.91 144.74 C 73.94 141.17 73.57 137.53 74.52 134.04 Z" />
<path fill="#ffffff" opacity="1.00" d=" M 89.39 139.97 C 88.96 136.73 92.23 135.20 94.85 134.63 C 96.23 135.42 98.45 135.82 97.72 137.93 C 96.49 137.50 95.27 137.04 94.05 136.58 C 93.44 136.91 92.22 137.57 91.61 137.90 C 91.71 139.36 90.94 141.40 92.39 142.43 C 94.20 144.04 96.34 142.22 98.30 141.97 C 97.29 146.97 88.71 144.83 89.39 139.97 Z" />
<path fill="#ffffff" opacity="1.00" d=" M 121.21 138.89 C 121.42 136.37 124.03 135.41 126.02 134.57 C 128.78 135.25 130.68 137.26 131.35 139.99 C 130.56 142.00 129.63 144.61 127.06 144.69 C 123.61 145.64 120.32 142.31 121.21 138.89 M 123.40 137.75 C 123.35 139.25 123.37 140.76 123.48 142.26 C 124.12 142.52 125.40 143.05 126.04 143.31 C 126.66 143.04 127.91 142.51 128.53 142.24 C 128.76 140.75 128.79 139.24 128.61 137.74 C 127.96 137.45 126.66 136.87 126.01 136.58 C 125.36 136.87 124.06 137.46 123.40 137.75 Z" />
<path fill="#ffffff" opacity="1.00" d=" M 143.73 134.25 C 144.25 134.70 144.78 135.16 145.30 135.61 C 145.22 138.63 145.24 141.66 145.27 144.68 C 144.83 144.72 143.97 144.79 143.54 144.83 C 143.48 141.30 143.41 137.77 143.73 134.25 Z" />
<path fill="#ffffff" opacity="1.00" d=" M 154.55 134.56 C 154.77 134.58 155.21 134.63 155.44 134.65 C 156.09 138.07 155.71 141.59 155.66 145.05 C 153.89 143.09 152.08 141.16 150.30 139.20 C 150.32 141.05 150.33 142.90 150.35 144.75 C 149.87 144.75 148.91 144.75 148.43 144.75 C 148.40 141.43 148.36 138.11 148.46 134.79 C 150.48 136.70 152.38 138.73 154.15 140.87 C 154.19 138.77 153.96 136.61 154.55 134.56 Z" />
<path fill="#ffffff" opacity="1.00" d=" M 30.82 134.86 C 32.92 136.65 34.78 138.68 36.64 140.72 C 36.62 138.86 36.60 137.00 36.60 135.14 L 38.31 135.13 C 38.34 138.47 38.34 141.81 38.27 145.15 C 36.41 143.14 34.51 141.16 32.78 139.04 C 32.83 140.97 32.83 142.91 32.82 144.85 C 32.30 144.78 31.28 144.66 30.77 144.60 C 30.81 141.35 30.77 138.10 30.82 134.86 Z" />
<path fill="#ffffff" opacity="1.00" d=" M 54.51 135.17 C 57.40 134.16 62.53 134.95 61.47 139.12 C 61.11 139.66 60.41 140.74 60.05 141.28 C 60.60 142.50 61.19 143.70 61.76 144.92 C 59.16 145.15 58.22 142.61 56.75 141.01 C 56.64 141.95 56.42 143.85 56.32 144.80 C 55.88 144.78 55.00 144.73 54.56 144.71 C 54.57 141.53 54.58 138.35 54.51 135.17 M 56.36 140.12 C 58.16 140.12 60.52 139.40 59.23 137.14 C 58.56 136.94 57.23 136.55 56.56 136.35 C 56.48 137.60 56.42 138.86 56.36 140.12 Z" />
<path fill="#ffffff" opacity="1.00" d=" M 64.50 134.78 C 66.83 134.81 69.16 134.81 71.49 134.81 L 71.64 136.72 C 70.91 136.71 69.46 136.68 68.73 136.66 C 68.72 139.47 68.74 142.28 68.65 145.08 C 68.30 144.96 67.60 144.72 67.25 144.59 C 66.92 141.97 67.10 139.32 67.10 136.68 C 66.38 136.68 64.94 136.67 64.23 136.67 L 64.50 134.78 Z" />
<path fill="#ffffff" opacity="1.00" d=" M 103.93 134.92 C 106.23 137.94 107.12 141.75 108.81 145.11 C 105.96 143.66 102.88 143.43 100.04 145.03 C 100.77 143.05 101.54 141.07 102.13 139.04 C 102.83 140.25 103.52 141.46 104.22 142.68 C 104.47 141.83 104.97 140.12 105.22 139.27 L 103.68 140.13 C 102.79 138.42 103.04 136.60 103.93 134.92 Z" />
<path fill="#ffffff" opacity="1.00" d=" M 111.19 134.69 C 113.50 135.06 116.87 134.30 118.22 136.76 C 119.04 138.06 118.20 139.49 117.71 140.72 C 116.60 142.20 118.22 143.63 118.72 145.02 C 118.16 144.91 117.03 144.69 116.47 144.58 C 115.61 143.37 114.74 142.17 113.87 140.98 C 113.24 142.61 112.63 144.25 111.92 145.85 C 110.38 142.32 111.25 138.40 111.19 134.69 M 113.25 136.44 C 113.21 137.63 113.17 138.83 113.14 140.03 C 113.89 139.99 115.39 139.90 116.14 139.86 C 116.34 139.03 116.53 138.20 116.72 137.37 C 115.56 137.04 114.41 136.73 113.25 136.44 Z" />
<path fill="#ffffff" opacity="1.00" d=" M 134.26 144.77 C 134.29 141.22 133.99 137.62 134.67 134.11 C 137.00 136.49 135.60 140.20 136.03 143.18 C 137.74 143.41 140.14 142.49 140.97 144.56 C 138.74 144.75 136.49 144.76 134.26 144.77 Z" />
<path fill="#ffffff" opacity="1.00" d=" M 162.91 134.84 C 164.95 137.98 166.05 141.60 167.68 144.95 C 164.77 143.77 161.75 143.36 158.97 145.12 C 159.65 143.05 160.44 141.03 161.13 138.97 C 161.80 140.22 162.47 141.47 163.16 142.72 C 163.40 141.90 163.88 140.26 164.12 139.44 L 162.75 140.01 C 161.64 138.34 161.86 136.54 162.91 134.84 Z" />
</g>
</svg>
